<?xml version="1.0" encoding="UTF-8"?>
<!DOCTYPE svg PUBLIC "-//W3C//DTD SVG 1.1//EN" "http://www.w3.org/Graphics/SVG/1.1/DTD/svg11.dtd">
<svg xmlns="http://www.w3.org/2000/svg" version="1.1" width="3200px" height="3200px" style="shape-rendering:geometricPrecision; text-rendering:geometricPrecision; image-rendering:optimizeQuality; fill-rule:evenodd; clip-rule:evenodd" xmlns:xlink="http://www.w3.org/1999/xlink">
<g><path style="opacity:0.995" fill="#0e2327" d="M 1614.5,400.5 C 1616.2,400.34 1617.87,400.506 1619.5,401C 1963.09,598.934 2306.43,797.267 2649.5,996C 2651.65,997.411 2653.98,998.245 2656.5,998.5C 2656.5,1399.17 2656.5,1799.83 2656.5,2200.5C 2653.98,2200.76 2651.65,2201.59 2649.5,2203C 2314.66,2396.92 1979.66,2590.59 1644.5,2784C 1635.55,2789.3 1626.38,2794.13 1617,2798.5C 1271.07,2599.7 925.401,2400.36 580,2200.5C 579.333,2129.83 579.333,2059.17 580,1988.5C 666.085,2038.46 752.252,2088.29 838.5,2138C 852.533,2147.24 867.866,2150.9 884.5,2149C 897.333,2145.5 905.5,2137.33 909,2124.5C 911.831,2110.77 911.165,2097.1 907,2083.5C 895.999,2050.83 876.833,2024 849.5,2003C 715.827,1925.16 581.827,1847.83 447.5,1771C 407.58,1749.74 381.747,1717.24 370,1673.5C 369.333,1662.17 369.333,1650.83 370,1639.5C 372.854,1628.65 379.354,1620.81 389.5,1616C 398.758,1614.42 408.091,1614.08 417.5,1615C 426.618,1617.56 435.285,1621.22 443.5,1626C 683.73,1764.37 923.73,1902.37 1163.5,2040C 1177.58,2045.86 1191.58,2045.86 1205.5,2040C 1216.98,2031.09 1222.65,2019.26 1222.5,2004.5C 1216.52,1957.36 1193.85,1920.53 1154.5,1894C 844.67,1715.59 535.003,1536.92 225.5,1358C 196.07,1335.55 176.57,1306.39 167,1270.5C 166.333,1258.83 166.333,1247.17 167,1235.5C 174.653,1214.75 189.486,1206.58 211.5,1211C 215.984,1211.87 220.317,1213.2 224.5,1215C 605.167,1434.67 985.833,1654.33 1366.5,1874C 1380.53,1883.24 1395.87,1886.9 1412.5,1885C 1426.96,1880.87 1435.46,1871.37 1438,1856.5C 1439.6,1844.04 1438.6,1831.71 1435,1819.5C 1424,1786.83 1404.83,1760 1377.5,1739C 1111.75,1585.37 845.915,1431.87 580,1278.5C 579.333,1185.17 579.333,1091.83 580,998.5C 924.978,799.266 1269.81,599.933 1614.5,400.5 Z"/></g>
<g><path style="opacity:1" fill="#6cb75f" d="M 2578.5,1015.5 C 2258.39,1200.73 1938.06,1385.73 1617.5,1570.5C 1296.82,1385.47 976.15,1200.47 655.5,1015.5C 975.815,830.006 1296.48,645.006 1617.5,460.5C 1938.11,645.126 2258.44,830.126 2578.5,1015.5 Z"/></g>
<g><path style="opacity:1" fill="#fefefe" d="M 655.5,1015.5 C 976.15,1200.47 1296.82,1385.47 1617.5,1570.5C 1938.06,1385.73 2258.39,1200.73 2578.5,1015.5C 2586.94,1019.89 2595.27,1024.56 2603.5,1029.5C 2604.5,1039.14 2604.83,1048.81 2604.5,1058.5C 2284.36,1243.74 1964.02,1428.74 1643.5,1613.5C 1642.5,1983.83 1642.17,2354.17 1642.5,2724.5C 1634.32,2729.42 1625.98,2734.09 1617.5,2738.5C 1609.52,2734.21 1601.52,2729.87 1593.5,2725.5C 1592.83,2354.83 1592.17,1984.17 1591.5,1613.5C 1271.42,1428.37 951.248,1243.37 631,1058.5C 630.333,1048.83 630.333,1039.17 631,1029.5C 638.95,1024.44 647.116,1019.78 655.5,1015.5 Z"/></g>
<g><path style="opacity:1" fill="#108239" d="M 2604.5,1058.5 C 2604.83,1428.83 2604.5,1799.17 2603.5,2169.5C 2283.3,2354.76 1962.97,2539.76 1642.5,2724.5C 1642.17,2354.17 1642.5,1983.83 1643.5,1613.5C 1964.02,1428.74 2284.36,1243.74 2604.5,1058.5 Z"/></g>
<g><path style="opacity:1" fill="#fefefe" d="M 2375.5,1453.5 C 2376.17,1610.33 2376.83,1767.33 2377.5,1924.5C 2378.11,1924.38 2378.44,1924.04 2378.5,1923.5C 2419.8,1899.85 2461.13,1876.18 2502.5,1852.5C 2503.5,1882 2503.83,1911.66 2503.5,1941.5C 2430.42,1983.7 2357.09,2025.37 2283.5,2066.5C 2283.17,1879.5 2283.5,1692.5 2284.5,1505.5C 2314.73,1487.89 2345.06,1470.56 2375.5,1453.5 Z"/></g>
<g><path style="opacity:1" fill="#eaf1ec" d="M 2375.5,1453.5 C 2375.56,1452.96 2375.89,1452.62 2376.5,1452.5C 2377.17,1609.67 2377.83,1766.67 2378.5,1923.5C 2378.44,1924.04 2378.11,1924.38 2377.5,1924.5C 2376.83,1767.33 2376.17,1610.33 2375.5,1453.5 Z"/></g>
<g><path style="opacity:1" fill="#fefefe" d="M 2090.5,2178.5 C 2089.83,2021.67 2089.17,1864.67 2088.5,1707.5C 2087.89,1707.62 2087.56,1707.96 2087.5,1708.5C 2063.12,1722.11 2038.95,1736.11 2015,1750.5C 2014.17,1720.26 2014.34,1690.09 2015.5,1660C 2095.75,1613.96 2175.91,1567.79 2256,1521.5C 2256.67,1551.5 2256.67,1581.5 2256,1611.5C 2231.96,1625.7 2207.8,1639.7 2183.5,1653.5C 2182.83,1811.17 2182.17,1968.83 2181.5,2126.5C 2151.15,2143.86 2120.82,2161.19 2090.5,2178.5 Z"/></g>
<g><path style="opacity:1" fill="#fdfefe" d="M 1982.5,1679.5 C 1983.5,1709 1983.83,1738.66 1983.5,1768.5C 1941.61,1792.36 1899.78,1816.36 1858,1840.5C 1857.33,1889.17 1857.33,1937.83 1858,1986.5C 1893.61,1966.28 1929.11,1945.95 1964.5,1925.5C 1965.5,1955 1965.83,1984.66 1965.5,2014.5C 1930.06,2035.39 1894.39,2056.06 1858.5,2076.5C 1857.83,2155.5 1857.17,2234.5 1856.5,2313.5C 1827,2330.08 1797.67,2346.91 1768.5,2364C 1766.98,2365.01 1765.31,2365.51 1763.5,2365.5C 1763.17,2178.5 1763.5,1991.5 1764.5,1804.5C 1837.18,1762.81 1909.85,1721.14 1982.5,1679.5 Z"/></g>
<g><path style="opacity:1" fill="#7bae8a" d="M 1982.5,1679.5 C 1982.56,1678.96 1982.89,1678.62 1983.5,1678.5C 1984.83,1708.66 1984.83,1738.66 1983.5,1768.5C 1983.83,1738.66 1983.5,1709 1982.5,1679.5 Z"/></g>
<g><path style="opacity:1" fill="#cadccf" d="M 2087.5,1708.5 C 2087.56,1707.96 2087.89,1707.62 2088.5,1707.5C 2089.17,1864.67 2089.83,2021.67 2090.5,2178.5C 2090.44,2179.04 2090.11,2179.38 2089.5,2179.5C 2088.83,2022.33 2088.17,1865.33 2087.5,1708.5 Z"/></g>
<g><path style="opacity:0.004" fill="#0f2427" d="M 696.5,1760.5 C 697.833,1761.17 697.833,1761.17 696.5,1760.5 Z"/></g>
<g><path style="opacity:0.004" fill="#0e2327" d="M 684.5,1761.5 C 685.833,1762.17 685.833,1762.17 684.5,1761.5 Z"/></g>
<g><path style="opacity:0.004" fill="#0e2326" d="M 690.5,1764.5 C 691.833,1765.17 691.833,1765.17 690.5,1764.5 Z"/></g>
<g><path style="opacity:0.004" fill="#0f2427" d="M 702.5,1767.5 C 703.833,1768.17 703.833,1768.17 702.5,1767.5 Z"/></g>
<g><path style="opacity:0.004" fill="#0f2427" d="M 719.5,1772.5 C 720.833,1773.17 720.833,1773.17 719.5,1772.5 Z"/></g>
<g><path style="opacity:0.004" fill="#0e2326" d="M 723.5,1776.5 C 724.833,1777.17 724.833,1777.17 723.5,1776.5 Z"/></g>
<g><path style="opacity:0.004" fill="#0e2326" d="M 726.5,1778.5 C 727.833,1779.17 727.833,1779.17 726.5,1778.5 Z"/></g>
<g><path style="opacity:0.004" fill="#0e2327" d="M 728.5,1779.5 C 729.833,1780.17 729.833,1780.17 728.5,1779.5 Z"/></g>
<g><path style="opacity:0.004" fill="#0e2326" d="M 735.5,1785.5 C 736.833,1786.17 736.833,1786.17 735.5,1785.5 Z"/></g>
<g><path style="opacity:0.004" fill="#0e2326" d="M 741.5,1786.5 C 742.833,1787.17 742.833,1787.17 741.5,1786.5 Z"/></g>
<g><path style="opacity:0.004" fill="#0e2327" d="M 752.5,1791.5 C 753.833,1792.17 753.833,1792.17 752.5,1791.5 Z"/></g>
<g><path style="opacity:0.004" fill="#0f2427" d="M 752.5,1796.5 C 753.833,1797.17 753.833,1797.17 752.5,1796.5 Z"/></g>
<g><path style="opacity:0.004" fill="#0f2427" d="M 765.5,1799.5 C 766.833,1800.17 766.833,1800.17 765.5,1799.5 Z"/></g>
<g><path style="opacity:0.004" fill="#0f2427" d="M 772.5,1806.5 C 773.833,1807.17 773.833,1807.17 772.5,1806.5 Z"/></g>
<g><path style="opacity:0.004" fill="#0f2427" d="M 778.5,1808.5 C 779.833,1809.17 779.833,1809.17 778.5,1808.5 Z"/></g>
<g><path style="opacity:0.004" fill="#0f2427" d="M 793.5,1818.5 C 794.833,1819.17 794.833,1819.17 793.5,1818.5 Z"/></g>
<g><path style="opacity:0.004" fill="#0f2427" d="M 797.5,1819.5 C 798.833,1820.17 798.833,1820.17 797.5,1819.5 Z"/></g>
<g><path style="opacity:0.004" fill="#0f2427" d="M 805.5,1824.5 C 806.833,1825.17 806.833,1825.17 805.5,1824.5 Z"/></g>
<g><path style="opacity:0.004" fill="#0e2327" d="M 810.5,1826.5 C 811.833,1827.17 811.833,1827.17 810.5,1826.5 Z"/></g>
<g><path style="opacity:0.004" fill="#0f2427" d="M 800.5,1828.5 C 801.833,1829.17 801.833,1829.17 800.5,1828.5 Z"/></g>
<g><path style="opacity:0.004" fill="#0e2326" d="M 813.5,1830.5 C 814.833,1831.17 814.833,1831.17 813.5,1830.5 Z"/></g>
<g><path style="opacity:0.004" fill="#0e2326" d="M 808.5,1831.5 C 809.833,1832.17 809.833,1832.17 808.5,1831.5 Z"/></g>
<g><path style="opacity:1" fill="#7bae8a" d="M 2502.5,1852.5 C 2502.56,1851.96 2502.89,1851.62 2503.5,1851.5C 2504.83,1881.66 2504.83,1911.66 2503.5,1941.5C 2503.83,1911.66 2503.5,1882 2502.5,1852.5 Z"/></g>
<g><path style="opacity:1" fill="#bdd5c3" d="M 1964.5,1925.5 C 1964.56,1924.96 1964.89,1924.62 1965.5,1924.5C 1966.83,1954.66 1966.83,1984.66 1965.5,2014.5C 1965.83,1984.66 1965.5,1955 1964.5,1925.5 Z"/></g>
</svg>
