<?xml version="1.0" encoding="UTF-8"?>
<!DOCTYPE svg PUBLIC "-//W3C//DTD SVG 1.1//EN" "http://www.w3.org/Graphics/SVG/1.1/DTD/svg11.dtd">
<svg xmlns="http://www.w3.org/2000/svg" version="1.1" width="11178px" height="4968px" style="shape-rendering:geometricPrecision; text-rendering:geometricPrecision; image-rendering:optimizeQuality; fill-rule:evenodd; clip-rule:evenodd" xmlns:xlink="http://www.w3.org/1999/xlink">
<g><path style="opacity:0.995" fill="#fefefe" d="M 1999.5,1220.5 C 2020.56,1218.21 2040.23,1222.38 2058.5,1233C 2399.57,1430.4 2740.91,1627.4 3082.5,1824C 3104.86,1836.88 3118.53,1856.05 3123.5,1881.5C 3124.83,2286.17 3124.83,2690.83 3123.5,3095.5C 3119.75,3114.07 3111.08,3129.9 3097.5,3143C 3088.35,3150.08 3078.68,3156.41 3068.5,3162C 2730.34,3356.24 2392.68,3551.24 2055.5,3747C 2024.65,3761.85 1994.32,3760.85 1964.5,3744C 1621.41,3545.23 1278.07,3346.9 934.5,3149C 916.523,3133.55 906.023,3114.05 903,3090.5C 903.604,2986.17 903.604,2881.84 903,2777.5C 865.752,2756.13 828.585,2734.63 791.5,2713C 741.08,2680.2 708.914,2634.37 695,2575.5C 689.974,2547.5 692.307,2520.16 702,2493.5C 721.734,2454.53 753.568,2434.03 797.5,2432C 723.839,2389.84 650.506,2347.17 577.5,2304C 533.026,2270.8 504.526,2226.97 492,2172.5C 490.401,2154.21 490.068,2135.88 491,2117.5C 499.152,2074.01 524.319,2045.51 566.5,2032C 598.392,2024.32 628.725,2028.32 657.5,2044C 739.167,2091.17 820.833,2138.33 902.5,2185.5C 903.595,2088.93 903.762,1992.26 903,1895.5C 904.413,1862.49 919.247,1837.65 947.5,1821C 1280.49,1629.51 1613.16,1437.51 1945.5,1245C 1957.01,1238.41 1968.67,1232.08 1980.5,1226C 1986.83,1223.67 1993.16,1221.84 1999.5,1220.5 Z"/></g>
<g><path style="opacity:1" fill="#0d2327" d="M 2012.5,1289.5 C 2358.47,1488.48 2704.13,1687.98 3049.5,1888C 3050.45,1888.48 3051.45,1888.65 3052.5,1888.5C 3052.83,2288.5 3052.5,2688.5 3051.5,3088.5C 2709.17,3286.33 2366.83,3484.17 2024.5,3682C 2020.73,3683.97 2016.89,3685.8 2013,3687.5C 2004.65,3683.74 1996.48,3679.57 1988.5,3675C 1650.92,3479.96 1313.42,3284.79 976,3089.5C 974.846,3054.05 974.346,3018.55 974.5,2983C 974.34,2948.08 974.84,2913.25 976,2878.5C 1061.92,2927.87 1147.75,2977.37 1233.5,3027C 1244.94,3033.87 1257.28,3038.04 1270.5,3039.5C 1290.98,3038.53 1302.81,3027.86 1306,3007.5C 1307.72,2990.77 1305.05,2974.77 1298,2959.5C 1286.78,2933.29 1269.95,2911.46 1247.5,2894C 1111.83,2814.83 975.827,2736.16 839.5,2658C 795.282,2633.57 770.282,2596.24 764.5,2546C 763.046,2517.12 776.713,2503.12 805.5,2504C 815.421,2505.2 824.754,2508.2 833.5,2513C 1075.3,2651.4 1316.96,2790.07 1558.5,2929C 1569.47,2933.83 1580.8,2935.16 1592.5,2933C 1606.82,2928.34 1614.99,2918.51 1617,2903.5C 1618.52,2890.19 1617.19,2877.19 1613,2864.5C 1600.23,2829.1 1578.06,2801.27 1546.5,2781C 1279.17,2627 1011.83,2473 744.5,2319C 701.335,2293.92 658.335,2268.59 615.5,2243C 579.786,2214.41 561.619,2177.24 561,2131.5C 564.24,2110.92 576.24,2100.26 597,2099.5C 606.749,2099.9 615.916,2102.4 624.5,2107C 1003.66,2325.41 1382.66,2544.08 1761.5,2763C 1774.71,2771.3 1789.04,2775.3 1804.5,2775C 1819.77,2772.4 1829.27,2763.57 1833,2748.5C 1836.62,2724.99 1832.29,2702.99 1820,2682.5C 1808.1,2660.93 1792.26,2642.76 1772.5,2628C 1509.49,2475.49 1246.16,2323.49 982.5,2172C 979.734,2170.53 977.234,2168.7 975,2166.5C 974.333,2075.17 974.333,1983.83 975,1892.5C 975.333,1891.17 975.667,1889.83 976,1888.5C 1321.32,1688.43 1666.82,1488.76 2012.5,1289.5 Z"/></g>
<g><path style="opacity:1" fill="#6cb75f" d="M 2974.5,1904.5 C 2654.39,2089.73 2334.06,2274.73 2013.5,2459.5C 1692.82,2274.47 1372.15,2089.47 1051.5,1904.5C 1371.81,1719.01 1692.48,1534.01 2013.5,1349.5C 2334.11,1534.13 2654.44,1719.13 2974.5,1904.5 Z"/></g>
<g><path style="opacity:0.991" fill="#fefffe" d="M 9032.5,1892.5 C 9123.17,1892.33 9213.83,1892.5 9304.5,1893C 9354.4,1893.89 9401.4,1905.89 9445.5,1929C 9507.57,1966.59 9545.9,2021.09 9560.5,2092.5C 9499.16,2092.83 9437.83,2092.5 9376.5,2091.5C 9362.5,2064.68 9340.83,2047.18 9311.5,2039C 9300.36,2035.77 9289.02,2033.44 9277.5,2032C 9241.19,2030.87 9204.85,2030.37 9168.5,2030.5C 9132.15,2030.37 9095.81,2030.87 9059.5,2032C 9024.48,2034.43 8994.98,2048.27 8971,2073.5C 8953.25,2097.83 8945.08,2125.16 8946.5,2155.5C 8945.24,2189.23 8955.41,2218.9 8977,2244.5C 8993.14,2259.99 9012.31,2269.82 9034.5,2274C 9042.76,2275.8 9051.09,2277.13 9059.5,2278C 9095.48,2279.12 9131.48,2279.62 9167.5,2279.5C 9199.5,2279.33 9231.5,2279.17 9263.5,2279C 9293.8,2278.1 9321.8,2269.76 9347.5,2254C 9362.7,2243.12 9373.7,2228.95 9380.5,2211.5C 9440.83,2210.5 9501.16,2210.17 9561.5,2210.5C 9549.98,2283.08 9513.32,2338.91 9451.5,2378C 9416.26,2397.3 9378.6,2408.97 9338.5,2413C 9323.55,2414.75 9308.55,2415.75 9293.5,2416C 9201.82,2416.94 9110.16,2416.61 9018.5,2415C 8982.68,2413.04 8948.01,2405.7 8914.5,2393C 8868.92,2372.75 8831.75,2342.25 8803,2301.5C 8787.13,2273.55 8777.46,2243.55 8774,2211.5C 8766.85,2157.39 8770.52,2104.05 8785,2051.5C 8800.4,2002.78 8829.9,1965.28 8873.5,1939C 8922.68,1910.22 8975.68,1894.72 9032.5,1892.5 Z"/></g>
<g><path style="opacity:0.993" fill="#fefffe" d="M 3475.5,1899.5 C 3698.17,1899.5 3920.83,1899.5 4143.5,1899.5C 4143.5,1945.83 4143.5,1992.17 4143.5,2038.5C 3979.5,2038.5 3815.5,2038.5 3651.5,2038.5C 3651.5,2062.5 3651.5,2086.5 3651.5,2110.5C 3800.5,2110.5 3949.5,2110.5 4098.5,2110.5C 4098.5,2154.5 4098.5,2198.5 4098.5,2242.5C 3949.5,2242.5 3800.5,2242.5 3651.5,2242.5C 3651.5,2297.83 3651.5,2353.17 3651.5,2408.5C 3592.83,2408.5 3534.17,2408.5 3475.5,2408.5C 3475.5,2238.83 3475.5,2069.17 3475.5,1899.5 Z"/></g>
<g><path style="opacity:0.993" fill="#fefffe" d="M 4404.5,1899.5 C 4478.84,1899.17 4553.17,1899.5 4627.5,1900.5C 4736.38,2069.75 4845.38,2238.92 4954.5,2408C 4887.83,2408.67 4821.17,2408.67 4754.5,2408C 4738.3,2383.3 4722.3,2358.47 4706.5,2333.5C 4579.17,2332.17 4451.83,2332.17 4324.5,2333.5C 4308.83,2358.17 4293.17,2382.83 4277.5,2407.5C 4210.84,2408.67 4144.17,2408.83 4077.5,2408C 4186.39,2238.39 4295.39,2068.89 4404.5,1899.5 Z M 4514.5,2036.5 C 4516.62,2037.03 4518.12,2038.36 4519,2040.5C 4552.79,2093.92 4586.96,2147.09 4621.5,2200C 4550.83,2200.67 4480.17,2200.67 4409.5,2200C 4444.75,2145.6 4479.75,2091.1 4514.5,2036.5 Z"/></g>
<g><path style="opacity:0.992" fill="#fefffe" d="M 5184.5,1899.5 C 5289.83,1899.33 5395.17,1899.5 5500.5,1900C 5533.27,1900.25 5565.27,1905.25 5596.5,1915C 5605.77,1918.63 5614.44,1923.3 5622.5,1929C 5643.91,1948.35 5661.08,1970.85 5674,1996.5C 5683.14,2020.07 5689.31,2044.41 5692.5,2069.5C 5634.5,2069.67 5576.5,2069.5 5518.5,2069C 5510.71,2052.87 5498.05,2043.21 5480.5,2040C 5474.86,2039.14 5469.19,2038.47 5463.5,2038C 5374.16,2037.07 5284.82,2037.4 5195.5,2039C 5181.87,2039.16 5168.53,2041.16 5155.5,2045C 5143.16,2051.17 5139.33,2060.67 5144,2073.5C 5150.29,2080.39 5158.12,2084.23 5167.5,2085C 5186.12,2086.75 5204.79,2087.75 5223.5,2088C 5311.17,2088.33 5398.83,2088.67 5486.5,2089C 5532.01,2089.58 5576.01,2097.92 5618.5,2114C 5657.23,2131.73 5683.73,2160.56 5698,2200.5C 5703.93,2229.81 5703.93,2259.15 5698,2288.5C 5695.16,2297.84 5691.5,2306.84 5687,2315.5C 5678.06,2331.43 5668.73,2347.09 5659,2362.5C 5647.45,2375.03 5633.62,2384.2 5617.5,2390C 5582.04,2401.11 5545.71,2407.11 5508.5,2408C 5380.5,2408.67 5252.5,2408.67 5124.5,2408C 5095.3,2407.08 5066.97,2401.75 5039.5,2392C 5024.78,2385.95 5012.28,2376.79 5002,2364.5C 4985.4,2346.89 4972.4,2326.89 4963,2304.5C 4955.61,2283.36 4950.44,2261.69 4947.5,2239.5C 5005.84,2239.17 5064.17,2239.5 5122.5,2240.5C 5129.22,2255.39 5140.56,2264.56 5156.5,2268C 5164.76,2269.57 5173.1,2270.57 5181.5,2271C 5276.84,2271.92 5372.17,2271.59 5467.5,2270C 5480.61,2269.66 5493.61,2268.32 5506.5,2266C 5524.7,2261.42 5530.53,2250.59 5524,2233.5C 5521.44,2230.47 5518.27,2228.3 5514.5,2227C 5507.67,2224.77 5500.67,2223.43 5493.5,2223C 5477.85,2222.01 5462.18,2221.34 5446.5,2221C 5358.5,2220.67 5270.5,2220.33 5182.5,2220C 5137.33,2219.37 5093.66,2211.03 5051.5,2195C 5023.51,2182.35 5001.01,2163.18 4984,2137.5C 4971.06,2115.46 4965.22,2091.63 4966.5,2066C 4964.89,2019.59 4980.89,1980.59 5014.5,1949C 5029.99,1936.25 5047.33,1926.58 5066.5,1920C 5104.98,1907.42 5144.31,1900.59 5184.5,1899.5 Z"/></g>
<g><path style="opacity:0.995" fill="#fefffe" d="M 5727.5,1899.5 C 6174.5,1899.5 6621.5,1899.5 7068.5,1899.5C 7068.5,1945.83 7068.5,1992.17 7068.5,2038.5C 6976.17,2038.5 6883.83,2038.5 6791.5,2038.5C 6791.5,2161.83 6791.5,2285.17 6791.5,2408.5C 6733.17,2408.5 6674.83,2408.5 6616.5,2408.5C 6616.5,2285.17 6616.5,2161.83 6616.5,2038.5C 6470.83,2038.5 6325.17,2038.5 6179.5,2038.5C 6179.5,2161.83 6179.5,2285.17 6179.5,2408.5C 6121.17,2408.5 6062.83,2408.5 6004.5,2408.5C 6004.5,2285.17 6004.5,2161.83 6004.5,2038.5C 5912.17,2038.5 5819.83,2038.5 5727.5,2038.5C 5727.5,1992.17 5727.5,1945.83 5727.5,1899.5 Z"/></g>
<g><path style="opacity:0.993" fill="#fefffe" d="M 7125.5,1899.5 C 7305.83,1899.33 7486.17,1899.5 7666.5,1900C 7698.68,1900.5 7730.01,1905.83 7760.5,1916C 7814.87,1936.52 7842.2,1976.02 7842.5,2034.5C 7842.16,2070.56 7831.66,2103.23 7811,2132.5C 7798.14,2147.68 7782.3,2158.51 7763.5,2165C 7789.83,2176.41 7811.99,2193.24 7830,2215.5C 7840.65,2230.12 7846.99,2246.45 7849,2264.5C 7851.17,2293.17 7853.17,2321.83 7855,2350.5C 7859.74,2371.98 7869.24,2390.98 7883.5,2407.5C 7854.17,2407.83 7824.83,2408.17 7795.5,2408.5C 7765.11,2408.66 7734.77,2408.16 7704.5,2407C 7695.97,2401.46 7690.8,2393.62 7689,2383.5C 7687.28,2377.25 7685.95,2370.91 7685,2364.5C 7683.39,2346.08 7681.05,2327.74 7678,2309.5C 7672,2275.17 7651.83,2255.33 7617.5,2250C 7512.83,2249.5 7408.17,2249.33 7303.5,2249.5C 7303.5,2302.5 7303.5,2355.5 7303.5,2408.5C 7244.17,2408.5 7184.83,2408.5 7125.5,2408.5C 7125.5,2238.83 7125.5,2069.17 7125.5,1899.5 Z M 7303.5,2038.5 C 7410.85,2038.03 7518.18,2038.53 7625.5,2040C 7663.98,2044.42 7677.15,2065.25 7665,2102.5C 7660.15,2112.36 7652.31,2118.52 7641.5,2121C 7635.92,2122.52 7630.26,2123.52 7624.5,2124C 7517.5,2124.5 7410.5,2124.67 7303.5,2124.5C 7303.5,2095.83 7303.5,2067.17 7303.5,2038.5 Z"/></g>
<g><path style="opacity:0.992" fill="#fefffe" d="M 8246.5,1899.5 C 8320.84,1899.17 8395.17,1899.5 8469.5,1900.5C 8578.5,2069.83 8687.5,2239.17 8796.5,2408.5C 8730.17,2409.67 8663.84,2409.83 8597.5,2409C 8580.97,2383.97 8564.64,2358.8 8548.5,2333.5C 8421.17,2332.17 8293.83,2332.17 8166.5,2333.5C 8150.83,2358.17 8135.17,2382.83 8119.5,2407.5C 8052.84,2408.67 7986.17,2408.83 7919.5,2408C 8028.39,2238.39 8137.39,2068.89 8246.5,1899.5 Z M 8356.5,2036.5 C 8358.62,2037.03 8360.12,2038.36 8361,2040.5C 8394.79,2093.92 8428.96,2147.09 8463.5,2200C 8392.83,2200.67 8322.17,2200.67 8251.5,2200C 8286.75,2145.6 8321.75,2091.1 8356.5,2036.5 Z"/></g>
<g><path style="opacity:0.991" fill="#fefffe" d="M 9633.5,1899.5 C 9692.17,1899.5 9750.83,1899.5 9809.5,1899.5C 9809.33,1956.17 9809.5,2012.83 9810,2069.5C 9900.58,2013.13 9991.08,1956.63 10081.5,1900C 10176.5,1899.33 10271.5,1899.33 10366.5,1900C 10242.8,1977.17 10119.2,2054.33 9995.5,2131.5C 10130.5,2223.67 10265.5,2315.83 10400.5,2408C 10305.5,2408.67 10210.5,2408.67 10115.5,2408C 10013.8,2338.5 9912.17,2269 9810.5,2199.5C 9809.5,2269.16 9809.17,2338.83 9809.5,2408.5C 9750.83,2408.5 9692.17,2408.5 9633.5,2408.5C 9633.5,2238.83 9633.5,2069.17 9633.5,1899.5 Z"/></g>
<g><path style="opacity:1" fill="#fefefe" d="M 1051.5,1904.5 C 1372.15,2089.47 1692.82,2274.47 2013.5,2459.5C 2334.06,2274.73 2654.39,2089.73 2974.5,1904.5C 2982.94,1908.89 2991.27,1913.56 2999.5,1918.5C 3000.5,1928.14 3000.83,1937.81 3000.5,1947.5C 2680.36,2132.74 2360.02,2317.74 2039.5,2502.5C 2038.5,2872.83 2038.17,3243.17 2038.5,3613.5C 2030.32,3618.42 2021.98,3623.09 2013.5,3627.5C 2005.52,3623.21 1997.52,3618.87 1989.5,3614.5C 1988.83,3243.83 1988.17,2873.17 1987.5,2502.5C 1667.42,2317.37 1347.25,2132.37 1027,1947.5C 1026.33,1937.83 1026.33,1928.17 1027,1918.5C 1034.95,1913.44 1043.12,1908.78 1051.5,1904.5 Z"/></g>
<g><path style="opacity:1" fill="#118239" d="M 3000.5,1947.5 C 3000.83,2317.83 3000.5,2688.17 2999.5,3058.5C 2679.3,3243.76 2358.97,3428.76 2038.5,3613.5C 2038.17,3243.17 2038.5,2872.83 2039.5,2502.5C 2360.02,2317.74 2680.36,2132.74 3000.5,1947.5 Z"/></g>
<g><path style="opacity:1" fill="#fefefe" d="M 2771.5,2342.5 C 2772.17,2499.17 2772.83,2655.83 2773.5,2812.5C 2815.3,2789.1 2856.97,2765.43 2898.5,2741.5C 2899.5,2771 2899.83,2800.66 2899.5,2830.5C 2826.42,2872.7 2753.09,2914.37 2679.5,2955.5C 2679.17,2768.5 2679.5,2581.5 2680.5,2394.5C 2710.73,2376.89 2741.06,2359.56 2771.5,2342.5 Z"/></g>
<g><path style="opacity:1" fill="#fefefe" d="M 2486.5,3067.5 C 2485.83,2910.67 2485.17,2753.67 2484.5,2596.5C 2483.89,2596.62 2483.56,2596.96 2483.5,2597.5C 2459.12,2611.11 2434.95,2625.11 2411,2639.5C 2410.17,2609.26 2410.34,2579.09 2411.5,2549C 2491.34,2502.91 2571.34,2457.08 2651.5,2411.5C 2652.67,2441.16 2652.83,2470.83 2652,2500.5C 2627.96,2514.7 2603.8,2528.7 2579.5,2542.5C 2578.83,2700.17 2578.17,2857.83 2577.5,3015.5C 2547.15,3032.86 2516.82,3050.19 2486.5,3067.5 Z"/></g>
<g><path style="opacity:0.981" fill="#fefffe" d="M 4581.5,2560.5 C 4681.5,2560.33 4781.5,2560.5 4881.5,2561C 4934.83,2562.16 4984.83,2575.5 5031.5,2601C 5072.02,2626.19 5101.85,2660.69 5121,2704.5C 5144.01,2760.97 5150.34,2819.3 5140,2879.5C 5118.11,2989.72 5051.94,3055.56 4941.5,3077C 4918.04,3081.37 4894.37,3083.7 4870.5,3084C 4777.83,3084.67 4685.17,3084.67 4592.5,3084C 4544.54,3084.12 4498.54,3074.79 4454.5,3056C 4419.4,3040.56 4390.57,3017.4 4368,2986.5C 4337.13,2942.9 4320.8,2894.24 4319,2840.5C 4314.26,2767.07 4334.59,2701.73 4380,2644.5C 4403.43,2618.09 4431.6,2598.26 4464.5,2585C 4502.26,2570.35 4541.26,2562.18 4581.5,2560.5 Z M 4584.5,2618.5 C 4686.52,2618.03 4788.52,2618.53 4890.5,2620C 4946.79,2625.07 4994.63,2647.57 5034,2687.5C 5056.31,2714.13 5069.98,2744.8 5075,2779.5C 5082.3,2825.34 5077.96,2870.01 5062,2913.5C 5047.35,2947.82 5023.85,2974.32 4991.5,2993C 4955.08,3014.27 4915.75,3025.61 4873.5,3027C 4774.15,3027.97 4674.82,3027.63 4575.5,3026C 4523.24,3021.69 4477.57,3002.35 4438.5,2968C 4405.49,2933.69 4387.99,2892.52 4386,2844.5C 4377.81,2722.96 4432.98,2649.12 4551.5,2623C 4562.61,2621.24 4573.61,2619.74 4584.5,2618.5 Z"/></g>
<g><path style="opacity:0.981" fill="#fefffe" d="M 5585.5,2560.5 C 5675.5,2560.33 5765.5,2560.5 5855.5,2561C 5905.75,2561.73 5953.08,2573.73 5997.5,2597C 6045.09,2624.09 6078.42,2663.25 6097.5,2714.5C 6073.16,2714.83 6048.82,2714.5 6024.5,2713.5C 5999.17,2672.3 5963.17,2644.8 5916.5,2631C 5895.34,2624.31 5873.67,2620.31 5851.5,2619C 5763.83,2618.33 5676.17,2618.33 5588.5,2619C 5529.25,2621.84 5478.42,2643.67 5436,2684.5C 5409.56,2714.77 5394.56,2750.1 5391,2790.5C 5378.19,2924.65 5438.02,3002.82 5570.5,3025C 5578.15,3025.9 5585.81,3026.57 5593.5,3027C 5691.17,3027.67 5788.83,3027.67 5886.5,3027C 5901.9,3026.44 5917.24,3025.11 5932.5,3023C 5948.37,3019.11 5962.37,3011.77 5974.5,3001C 5989.77,2987.26 6002.27,2971.42 6012,2953.5C 6023.82,2931.21 6033.98,2908.21 6042.5,2884.5C 5926.84,2883.5 5811.17,2883.17 5695.5,2883.5C 5695.5,2862.83 5695.5,2842.17 5695.5,2821.5C 5834.83,2821.5 5974.17,2821.5 6113.5,2821.5C 6113.5,2906.83 6113.5,2992.17 6113.5,3077.5C 6096.83,3077.5 6080.17,3077.5 6063.5,3077.5C 6060.93,3048.48 6058.1,3019.48 6055,2990.5C 6035.46,3037.03 6000.96,3065.86 5951.5,3077C 5932.74,3081.22 5913.74,3083.55 5894.5,3084C 5795.17,3084.67 5695.83,3084.67 5596.5,3084C 5548.54,3084.12 5502.54,3074.79 5458.5,3056C 5420.96,3038.83 5390.46,3013.33 5367,2979.5C 5339.31,2937.43 5324.65,2891.1 5323,2840.5C 5318.26,2767.07 5338.59,2701.73 5384,2644.5C 5407.43,2618.09 5435.6,2598.26 5468.5,2585C 5506.26,2570.35 5545.26,2562.18 5585.5,2560.5 Z"/></g>
<g><path style="opacity:0.98" fill="#fefffe" d="M 8974.5,2560.5 C 9064.5,2560.33 9154.5,2560.5 9244.5,2561C 9294.75,2561.73 9342.08,2573.73 9386.5,2597C 9434.09,2624.09 9467.42,2663.25 9486.5,2714.5C 9462.16,2714.83 9437.82,2714.5 9413.5,2713.5C 9393.07,2679.24 9364.4,2654.41 9327.5,2639C 9303.43,2629.06 9278.43,2622.73 9252.5,2620C 9160.85,2618.36 9069.18,2618.03 8977.5,2619C 8918.25,2621.84 8867.42,2643.67 8825,2684.5C 8796.17,2717.96 8780.84,2756.96 8779,2801.5C 8775.36,2842.37 8781.36,2881.7 8797,2919.5C 8813.34,2953.5 8838.17,2979.34 8871.5,2997C 8906.15,3015.58 8943.15,3025.58 8982.5,3027C 9067.17,3027.67 9151.83,3027.67 9236.5,3027C 9285.69,3024.94 9330.35,3009.94 9370.5,2982C 9390.3,2966.56 9405.96,2947.72 9417.5,2925.5C 9441.83,2924.17 9466.17,2924.17 9490.5,2925.5C 9460.08,3003.08 9404.41,3052.25 9323.5,3073C 9293.25,3080.1 9262.58,3083.77 9231.5,3084C 9149.5,3084.67 9067.5,3084.67 8985.5,3084C 8927.5,3084.54 8873.17,3070.87 8822.5,3043C 8771.86,3009.98 8738.36,2964.14 8722,2905.5C 8705.86,2842.02 8708.53,2779.35 8730,2717.5C 8760.23,2640.28 8815.73,2591.78 8896.5,2572C 8922.31,2565.86 8948.31,2562.03 8974.5,2560.5 Z"/></g>
<g><path style="opacity:1" fill="#eaf2ec" d="M 2771.5,2342.5 C 2771.56,2341.96 2771.89,2341.62 2772.5,2341.5C 2773.5,2498.5 2773.83,2655.5 2773.5,2812.5C 2772.83,2655.83 2772.17,2499.17 2771.5,2342.5 Z"/></g>
<g><path style="opacity:0.974" fill="#fefffe" d="M 3475.5,2567.5 C 3497.83,2567.5 3520.17,2567.5 3542.5,2567.5C 3542.5,2717.5 3542.5,2867.5 3542.5,3017.5C 3746.83,3017.5 3951.17,3017.5 4155.5,3017.5C 4155.5,3037.5 4155.5,3057.5 4155.5,3077.5C 3928.83,3077.5 3702.17,3077.5 3475.5,3077.5C 3475.5,2907.5 3475.5,2737.5 3475.5,2567.5 Z"/></g>
<g><path style="opacity:0.977" fill="#fefffe" d="M 6337.5,2567.5 C 6359.83,2567.5 6382.17,2567.5 6404.5,2567.5C 6404.5,2737.5 6404.5,2907.5 6404.5,3077.5C 6382.17,3077.5 6359.83,3077.5 6337.5,3077.5C 6337.5,2907.5 6337.5,2737.5 6337.5,2567.5 Z"/></g>
<g><path style="opacity:0.984" fill="#fefffe" d="M 6798.5,2567.5 C 6918.5,2567.33 7038.5,2567.5 7158.5,2568C 7184.56,2568.34 7210.23,2571.67 7235.5,2578C 7257.23,2583.45 7275.4,2594.61 7290,2611.5C 7302.2,2624.36 7312.87,2638.36 7322,2653.5C 7332.4,2675.21 7339.9,2697.87 7344.5,2721.5C 7320.16,2721.83 7295.82,2721.5 7271.5,2720.5C 7262.49,2693.63 7247.83,2670.46 7227.5,2651C 7206.59,2636.25 7183.26,2628.25 7157.5,2627C 7031.48,2626.02 6905.48,2626.35 6779.5,2628C 6758.69,2629.78 6739.03,2635.45 6720.5,2645C 6703.09,2656.45 6692.93,2672.61 6690,2693.5C 6686.95,2713.97 6689.61,2733.64 6698,2752.5C 6705.39,2764.96 6715.89,2773.79 6729.5,2779C 6755.69,2788.15 6782.69,2792.48 6810.5,2792C 6937.17,2792.33 7063.83,2792.67 7190.5,2793C 7223.16,2793.94 7254.82,2799.94 7285.5,2811C 7319.65,2826.42 7341.82,2852.25 7352,2888.5C 7358.58,2919.35 7359.25,2950.35 7354,2981.5C 7350.6,3003.8 7340.77,3022.64 7324.5,3038C 7284.25,3062.19 7240.58,3074.86 7193.5,3076C 7053.83,3076.67 6914.17,3076.67 6774.5,3076C 6747.71,3074.98 6721.71,3069.98 6696.5,3061C 6686.83,3057.17 6678.16,3051.84 6670.5,3045C 6651.74,3027.61 6636.24,3007.78 6624,2985.5C 6615.19,2965.56 6608.69,2944.89 6604.5,2923.5C 6628.84,2923.33 6653.17,2923.5 6677.5,2924C 6686.27,2950.57 6700.61,2973.57 6720.5,2993C 6735.5,3004.78 6752.5,3012.12 6771.5,3015C 6779.44,3016.47 6787.44,3017.47 6795.5,3018C 6928.51,3018.98 7061.51,3018.64 7194.5,3017C 7217.11,3015.46 7238.45,3009.46 7258.5,2999C 7277.09,2985.34 7286.92,2966.84 7288,2943.5C 7292.65,2898.21 7273.15,2870.05 7229.5,2859C 7210.1,2854.49 7190.43,2852.16 7170.5,2852C 7036.82,2851.97 6903.15,2851.31 6769.5,2850C 6722.77,2848.11 6681.77,2832.11 6646.5,2802C 6633.69,2787.61 6625.86,2770.78 6623,2751.5C 6618.33,2723.17 6618.33,2694.83 6623,2666.5C 6625.72,2647.65 6632.72,2630.65 6644,2615.5C 6648.24,2610.59 6653.08,2606.42 6658.5,2603C 6702.14,2578.92 6748.81,2567.09 6798.5,2567.5 Z"/></g>
<g><path style="opacity:0.983" fill="#fefffe" d="M 7516.5,2567.5 C 7759.5,2567.5 8002.5,2567.5 8245.5,2567.5C 8245.5,2587.17 8245.5,2606.83 8245.5,2626.5C 8135.17,2626.5 8024.83,2626.5 7914.5,2626.5C 7914.5,2776.5 7914.5,2926.5 7914.5,3076.5C 7892.17,3076.5 7869.83,3076.5 7847.5,3076.5C 7847.5,2926.5 7847.5,2776.5 7847.5,2626.5C 7737.17,2626.5 7626.83,2626.5 7516.5,2626.5C 7516.5,2606.83 7516.5,2587.17 7516.5,2567.5 Z"/></g>
<g><path style="opacity:0.978" fill="#fefffe" d="M 8438.5,2567.5 C 8460.83,2567.5 8483.17,2567.5 8505.5,2567.5C 8505.5,2737.17 8505.5,2906.83 8505.5,3076.5C 8483.17,3076.5 8460.83,3076.5 8438.5,3076.5C 8438.5,2906.83 8438.5,2737.17 8438.5,2567.5 Z"/></g>
<g><path style="opacity:0.984" fill="#fefffe" d="M 9854.5,2567.5 C 9974.5,2567.33 10094.5,2567.5 10214.5,2568C 10240.6,2568.34 10266.2,2571.67 10291.5,2578C 10313.2,2583.45 10331.4,2594.61 10346,2611.5C 10358.2,2624.36 10368.9,2638.36 10378,2653.5C 10388.4,2675.21 10395.9,2697.87 10400.5,2721.5C 10376.2,2721.83 10351.8,2721.5 10327.5,2720.5C 10318.5,2693.63 10303.8,2670.46 10283.5,2651C 10262.6,2636.25 10239.3,2628.25 10213.5,2627C 10087.5,2626.02 9961.48,2626.35 9835.5,2628C 9814.69,2629.78 9795.03,2635.45 9776.5,2645C 9759.09,2656.45 9748.93,2672.61 9746,2693.5C 9742.95,2713.97 9745.61,2733.64 9754,2752.5C 9761.39,2764.96 9771.89,2773.79 9785.5,2779C 9811.69,2788.15 9838.69,2792.48 9866.5,2792C 9993.17,2792.33 10119.8,2792.67 10246.5,2793C 10279.2,2793.94 10310.8,2799.94 10341.5,2811C 10375.6,2826.42 10397.8,2852.25 10408,2888.5C 10414.6,2919.35 10415.2,2950.35 10410,2981.5C 10406.6,3003.8 10396.8,3022.64 10380.5,3038C 10340.2,3062.19 10296.6,3074.86 10249.5,3076C 10109.8,3076.67 9970.17,3076.67 9830.5,3076C 9803.71,3074.98 9777.71,3069.98 9752.5,3061C 9742.83,3057.17 9734.16,3051.84 9726.5,3045C 9707.74,3027.61 9692.24,3007.78 9680,2985.5C 9671.19,2965.56 9664.69,2944.89 9660.5,2923.5C 9684.84,2923.33 9709.17,2923.5 9733.5,2924C 9742.27,2950.57 9756.61,2973.57 9776.5,2993C 9791.5,3004.78 9808.5,3012.12 9827.5,3015C 9835.44,3016.47 9843.44,3017.47 9851.5,3018C 9984.51,3018.98 10117.5,3018.64 10250.5,3017C 10273.1,3015.46 10294.4,3009.46 10314.5,2999C 10333.1,2985.34 10342.9,2966.84 10344,2943.5C 10348.7,2898.21 10329.2,2870.05 10285.5,2859C 10266.1,2854.49 10246.4,2852.16 10226.5,2852C 10092.8,2851.97 9959.15,2851.31 9825.5,2850C 9778.77,2848.11 9737.77,2832.11 9702.5,2802C 9689.69,2787.61 9681.86,2770.78 9679,2751.5C 9674.33,2723.17 9674.33,2694.83 9679,2666.5C 9681.72,2647.65 9688.72,2630.65 9700,2615.5C 9704.24,2610.59 9709.08,2606.42 9714.5,2603C 9758.14,2578.92 9804.81,2567.09 9854.5,2567.5 Z"/></g>
<g><path style="opacity:1" fill="#fdfefe" d="M 2378.5,2568.5 C 2379.5,2598 2379.83,2627.66 2379.5,2657.5C 2337.61,2681.36 2295.78,2705.36 2254,2729.5C 2253.33,2778.17 2253.33,2826.83 2254,2875.5C 2289.61,2855.28 2325.11,2834.95 2360.5,2814.5C 2361.5,2844 2361.83,2873.66 2361.5,2903.5C 2326.06,2924.39 2290.39,2945.06 2254.5,2965.5C 2253.83,3044.5 2253.17,3123.5 2252.5,3202.5C 2223,3219.08 2193.67,3235.91 2164.5,3253C 2162.98,3254.01 2161.31,3254.51 2159.5,3254.5C 2159.17,3067.5 2159.5,2880.5 2160.5,2693.5C 2233.18,2651.81 2305.85,2610.14 2378.5,2568.5 Z"/></g>
<g><path style="opacity:1" fill="#cbddcf" d="M 2483.5,2597.5 C 2483.56,2596.96 2483.89,2596.62 2484.5,2596.5C 2485.17,2753.67 2485.83,2910.67 2486.5,3067.5C 2486.44,3068.04 2486.11,3068.38 2485.5,3068.5C 2484.83,2911.33 2484.17,2754.33 2483.5,2597.5 Z"/></g>
<g><path style="opacity:1" fill="#7bae8a" d="M 2378.5,2568.5 C 2378.56,2567.96 2378.89,2567.62 2379.5,2567.5C 2380.83,2597.66 2380.83,2627.66 2379.5,2657.5C 2379.83,2627.66 2379.5,2598 2378.5,2568.5 Z"/></g>
<g><path style="opacity:1" fill="#7bae8a" d="M 2898.5,2741.5 C 2898.56,2740.96 2898.89,2740.62 2899.5,2740.5C 2900.83,2770.66 2900.83,2800.66 2899.5,2830.5C 2899.83,2800.66 2899.5,2771 2898.5,2741.5 Z"/></g>
<g><path style="opacity:1" fill="#bdd4c3" d="M 2360.5,2814.5 C 2360.56,2813.96 2360.89,2813.62 2361.5,2813.5C 2362.83,2843.66 2362.83,2873.66 2361.5,2903.5C 2361.83,2873.66 2361.5,2844 2360.5,2814.5 Z"/></g>
</svg>
